<?xml version="1.0" encoding="UTF-8" standalone="no"?>
<!-- Created with Inkscape (http://www.inkscape.org/) -->

<svg
   xmlns:dc="http://purl.org/dc/elements/1.1/"
   xmlns:cc="http://creativecommons.org/ns#"
   xmlns:rdf="http://www.w3.org/1999/02/22-rdf-syntax-ns#"
   xmlns:svg="http://www.w3.org/2000/svg"
   xmlns="http://www.w3.org/2000/svg"
   xmlns:sodipodi="http://sodipodi.sourceforge.net/DTD/sodipodi-0.dtd"
   xmlns:inkscape="http://www.inkscape.org/namespaces/inkscape"
   width="73.160553mm"
   height="29.376089mm"
   viewBox="0 0 73.160553 29.376089"
   version="1.1"
   id="svg831"
   inkscape:version="0.92.4 (5da689c313, 2019-01-14)"
   sodipodi:docname="logo-stacked-inverted.svg"
   inkscape:export-filename="C:\Users\N\Desktop\Google Drive Sync\PR\Logo\logo-stacked-inverted.png"
   inkscape:export-xdpi="1200"
   inkscape:export-ydpi="1200">
  <defs
     id="defs825" />
  <sodipodi:namedview
     id="base"
     pagecolor="#ffffff"
     bordercolor="#666666"
     borderopacity="1.0"
     inkscape:pageopacity="0.0"
     inkscape:pageshadow="2"
     inkscape:zoom="1.7575085"
     inkscape:cx="41.518055"
     inkscape:cy="4.5927259"
     inkscape:document-units="mm"
     inkscape:current-layer="layer1"
     showgrid="false"
     fit-margin-top="0"
     fit-margin-left="0"
     fit-margin-right="0"
     fit-margin-bottom="0"
     inkscape:window-width="1920"
     inkscape:window-height="986"
     inkscape:window-x="-11"
     inkscape:window-y="-11"
     inkscape:window-maximized="1" />
  <metadata
     id="metadata828">
    <rdf:RDF>
      <cc:Work
         rdf:about="">
        <dc:format>image/svg+xml</dc:format>
        <dc:type
           rdf:resource="http://purl.org/dc/dcmitype/StillImage" />
        <dc:title></dc:title>
      </cc:Work>
    </rdf:RDF>
  </metadata>
  <g
     inkscape:label="Layer 1"
     inkscape:groupmode="layer"
     id="layer1"
     transform="translate(-12.352873,-106.28864)">
    <path
       style="opacity:1;fill:#364e0c;fill-opacity:1;stroke-width:0.22844715"
       d="m 12.352873,106.28864 h 73.160555 v 29.37609 H 12.352873 Z"
       id="rect826"
       inkscape:connector-curvature="0" />
    <g
       aria-label="PROTEIN REPORT"
       transform="matrix(0.26458333,0,0,0.26458333,-0.94640526,-0.27993162)"
       style="font-style:normal;font-weight:normal;font-size:40px;line-height:1.25em;font-family:sans-serif;letter-spacing:0px;word-spacing:0px;fill:#ffffff;fill-opacity:1;stroke:none"
       id="flowRoot1379">
      <path
         d="m 71.053156,442.38073 h 6.144 q 4.928,0 9.088,-1.664 4.224,-1.664 6.784,-5.056 2.56,-3.456 2.56,-8.448 0,-5.056 -2.432,-8.576 -2.368,-3.584 -6.464,-5.312 -4.032,-1.792 -9.024,-1.792 h -18.304 v 43.52 h 11.648 z m 6.272,-21.696 q 2.88,0 4.544,1.792 1.728,1.792 1.728,4.736 0,2.56 -1.728,4.288 -1.728,1.728 -4.416,1.728 h -6.4 v -12.544 z"
         style="font-style:normal;font-variant:normal;font-weight:900;font-stretch:normal;font-size:64px;line-height:0em;font-family:Catamaran;-inkscape-font-specification:'Catamaran Heavy';letter-spacing:-3px;fill:#ffffff;fill-opacity:1"
         id="path817"
         inkscape:connector-curvature="0" />
      <path
         d="m 99.030156,455.05273 h 11.648004 v -13.696 h 7.744 l 7.04,13.696 h 13.504 l -9.6,-17.152 q 2.752,-1.856 4.288,-4.736 1.6,-2.944 1.6,-6.784 0,-7.424 -5.056,-11.136 -5.056,-3.712 -12.864,-3.712 H 99.030156 Z m 17.920004,-34.368 q 3.008,0 4.608,1.472 1.664,1.408 1.664,4.224 0,2.56 -1.728,4.224 -1.728,1.6 -4.416,1.6 h -6.4 v -11.52 z"
         style="font-style:normal;font-variant:normal;font-weight:900;font-stretch:normal;font-size:64px;line-height:0em;font-family:Catamaran;-inkscape-font-specification:'Catamaran Heavy';letter-spacing:-3px;fill:#ffffff;fill-opacity:1"
         id="path819"
         inkscape:connector-curvature="0" />
      <path
         d="m 161.04416,410.63673 q -6.464,0 -11.584,2.944 -5.12,2.88 -8,8.128 -2.88,5.184 -2.88,11.776 0,6.272 2.752,11.392 2.752,5.12 7.808,8.128 5.12,2.944 11.904,2.944 6.592,0 11.712,-2.88 5.12,-2.944 7.936,-8.128 2.88,-5.248 2.88,-11.904 0,-6.272 -2.752,-11.392 -2.688,-5.12 -7.808,-8.064 -5.056,-2.944 -11.968,-2.944 z m -10.496,22.784 q 0,-3.84 1.408,-6.784 1.472,-3.008 3.84,-4.608 2.432,-1.664 5.376,-1.664 4.736,0 7.552,3.584 2.88,3.52 2.88,9.088 0,6.336 -3.008,9.792 -2.944,3.392 -7.616,3.392 -4.864,0 -7.68,-3.584 -2.752,-3.584 -2.752,-9.216 z"
         style="font-style:normal;font-variant:normal;font-weight:900;font-stretch:normal;font-size:64px;line-height:0em;font-family:Catamaran;-inkscape-font-specification:'Catamaran Heavy';letter-spacing:-3px;fill:#ffffff;fill-opacity:1"
         id="path821"
         inkscape:connector-curvature="0" />
      <path
         d="m 220.42316,411.53273 h -37.248 v 9.152 h 12.8 v 34.368 h 11.648 v -34.368 h 13.888 z"
         style="font-style:normal;font-variant:normal;font-weight:900;font-stretch:normal;font-size:64px;line-height:0em;font-family:Catamaran;-inkscape-font-specification:'Catamaran Heavy';letter-spacing:-3px;fill:#ffffff;fill-opacity:1"
         id="path823"
         inkscape:connector-curvature="0" />
      <path
         d="m 256.15216,455.05273 -1.088,-9.152 h -19.136 v -8.128 h 14.464 l -1.088,-9.152 h -13.376 v -7.936 h 18.304 l -1.088,-9.152 h -28.864 v 43.52 z"
         style="font-style:normal;font-variant:normal;font-weight:900;font-stretch:normal;font-size:64px;line-height:0em;font-family:Catamaran;-inkscape-font-specification:'Catamaran Heavy';letter-spacing:-3px;fill:#ffffff;fill-opacity:1"
         id="path825"
         inkscape:connector-curvature="0" />
      <path
         d="m 271.17816,455.05273 v -43.52 h -11.648 v 43.52 z"
         style="font-style:normal;font-variant:normal;font-weight:900;font-stretch:normal;font-size:64px;line-height:0em;font-family:Catamaran;-inkscape-font-specification:'Catamaran Heavy';letter-spacing:-3px;fill:#ffffff;fill-opacity:1"
         id="path827"
         inkscape:connector-curvature="0" />
      <path
         d="m 290.05316,455.05273 v -22.912 l 16.704,22.912 h 10.88 v -43.52 h -11.648 v 23.616 l -16.768,-23.616 h -10.816 v 43.52 z"
         style="font-style:normal;font-variant:normal;font-weight:900;font-stretch:normal;font-size:64px;line-height:0em;font-family:Catamaran;-inkscape-font-specification:'Catamaran Heavy';letter-spacing:-3px;fill:#ffffff;fill-opacity:1"
         id="path829"
         inkscape:connector-curvature="0" />
      <path
         d="m 59.405156,505.05273 h 11.648 v -13.696 h 7.744 l 7.04,13.696 h 13.504 l -9.6,-17.152 q 2.752,-1.856 4.288,-4.736 1.6,-2.944 1.6,-6.784 0,-7.424 -5.056,-11.136 -5.056,-3.712 -12.864,-3.712 h -18.304 z m 17.92,-34.368 q 3.008,0 4.608,1.472 1.664,1.408 1.664,4.224 0,2.56 -1.728,4.224 -1.728,1.6 -4.416,1.6 h -6.4 v -11.52 z"
         style="font-style:normal;font-variant:normal;font-weight:900;font-stretch:normal;font-size:64px;line-height:0em;font-family:Catamaran;-inkscape-font-specification:'Catamaran Heavy';letter-spacing:0.60000002px;fill:#ffffff"
         id="path831"
         inkscape:connector-curvature="0" />
      <path
         d="m 137.62715,505.05273 -1.088,-9.152 h -19.136 v -8.128 h 14.464 l -1.088,-9.152 h -13.376 v -7.936 h 18.304 l -1.088,-9.152 h -28.864 v 43.52 z"
         style="font-style:normal;font-variant:normal;font-weight:900;font-stretch:normal;font-size:64px;line-height:0em;font-family:Catamaran;-inkscape-font-specification:'Catamaran Heavy';letter-spacing:0.60000002px;fill:#ffffff"
         id="path833"
         inkscape:connector-curvature="0" />
      <path
         d="m 156.25315,492.38073 h 6.144 q 4.928,0 9.088,-1.664 4.224,-1.664 6.784,-5.056 2.56,-3.456 2.56,-8.448 0,-5.056 -2.432,-8.576 -2.368,-3.584 -6.464,-5.312 -4.032,-1.792 -9.024,-1.792 h -18.304 v 43.52 h 11.648 z m 6.272,-21.696 q 2.88,0 4.544,1.792 1.728,1.792 1.728,4.736 0,2.56 -1.728,4.288 -1.728,1.728 -4.416,1.728 h -6.4 v -12.544 z"
         style="font-style:normal;font-variant:normal;font-weight:900;font-stretch:normal;font-size:64px;line-height:0em;font-family:Catamaran;-inkscape-font-specification:'Catamaran Heavy';letter-spacing:0.60000002px;fill:#ffffff"
         id="path835"
         inkscape:connector-curvature="0" />
      <path
         d="m 207.09416,460.63673 q -6.464,0 -11.584,2.944 -5.12,2.88 -8,8.128 -2.88,5.184 -2.88,11.776 0,6.272 2.752,11.392 2.752,5.12 7.808,8.128 5.12,2.944 11.904,2.944 6.592,0 11.712,-2.88 5.12,-2.944 7.936,-8.128 2.88,-5.248 2.88,-11.904 0,-6.272 -2.752,-11.392 -2.688,-5.12 -7.808,-8.064 -5.056,-2.944 -11.968,-2.944 z m -10.496,22.784 q 0,-3.84 1.408,-6.784 1.472,-3.008 3.84,-4.608 2.432,-1.664 5.376,-1.664 4.736,0 7.552,3.584 2.88,3.52 2.88,9.088 0,6.336 -3.008,9.792 -2.944,3.392 -7.616,3.392 -4.864,0 -7.68,-3.584 -2.752,-3.584 -2.752,-9.216 z"
         style="font-style:normal;font-variant:normal;font-weight:900;font-stretch:normal;font-size:64px;line-height:0em;font-family:Catamaran;-inkscape-font-specification:'Catamaran Heavy';letter-spacing:0.60000002px;fill:#ffffff"
         id="path837"
         inkscape:connector-curvature="0" />
      <path
         d="m 237.30515,505.05273 h 11.648 v -13.696 h 7.744 l 7.04,13.696 h 13.504 l -9.6,-17.152 q 2.752,-1.856 4.288,-4.736 1.6,-2.944 1.6,-6.784 0,-7.424 -5.056,-11.136 -5.056,-3.712 -12.864,-3.712 h -18.304 z m 17.92,-34.368 q 3.008,0 4.608,1.472 1.664,1.408 1.664,4.224 0,2.56 -1.728,4.224 -1.728,1.6 -4.416,1.6 h -6.4 v -11.52 z"
         style="font-style:normal;font-variant:normal;font-weight:900;font-stretch:normal;font-size:64px;line-height:0em;font-family:Catamaran;-inkscape-font-specification:'Catamaran Heavy';letter-spacing:0.60000002px;fill:#ffffff"
         id="path839"
         inkscape:connector-curvature="0" />
      <path
         d="m 316.42316,461.53273 h -37.248 v 9.152 h 12.8 v 34.368 h 11.648 v -34.368 h 13.888 z"
         style="font-style:normal;font-variant:normal;font-weight:900;font-stretch:normal;font-size:64px;line-height:0em;font-family:Catamaran;-inkscape-font-specification:'Catamaran Heavy';letter-spacing:0.60000002px;fill:#ffffff"
         id="path841"
         inkscape:connector-curvature="0" />
    </g>
  </g>
</svg>
